<svg xmlns="http://www.w3.org/2000/svg" viewBox="0 0 36.53 36.53"><defs><style>.cls-1{fill:#fff;}</style></defs><g id="Layer_2" data-name="Layer 2"><g id="Icons"><path class="cls-1" d="M15.61,15.49c-.66.57-1.34,1.13-2,1.67l-1.47-1.72L8,10.52,8,10.4a25,25,0,0,1-2.36,1.67A15.71,15.71,0,0,1,.84,14,15.5,15.5,0,0,1,3.07,9.4,21.87,21.87,0,0,1,5.12,6.88C3.42,4.77,1.73,2.67.08.51L.59,0C2.75,1.66,4.86,3.37,7,5.09A21.82,21.82,0,0,1,10,2.81,15.4,15.4,0,0,1,14.79.86a15.44,15.44,0,0,1-2.23,4.63,20.41,20.41,0,0,1-2,2.49l0,0,4.9,4.09,2.05,1.77Z"/><path class="cls-1" d="M22.3,17.94l-2,2.35c-.69.79-1.36,1.61-2,2.43-.66-.83-1.32-1.64-2-2.44l-2-2.36c.69-.54,1.37-1.1,2-1.67l2-1.72,2,1.73Q21.28,17.11,22.3,17.94Z"/><path class="cls-1" d="M36.45,36l-.5.5a32.94,32.94,0,0,1-6.23-3.11l-3.31-7.68L28,32.26c-1.13-.78-2.22-1.62-3.28-2.47a30.74,30.74,0,0,1-4.45-4.53c-.46-.57-.91-1.15-1.37-1.73.7-.88,1.41-1.75,2.14-2.59l2-2.37,2.17,1.72a30.32,30.32,0,0,1,4.51,4.48A39.25,39.25,0,0,1,36.45,36Z"/><path class="cls-1" d="M11.77,29.76a30.81,30.81,0,0,0,4.48-4.51c1.33-1.67,2.63-3.36,4-5l4.17-4.83,4.09-4.9,0,0a21.2,21.2,0,0,0,2.49,2,15.19,15.19,0,0,0,4.63,2.22,15.6,15.6,0,0,0-2-4.75A22.25,22.25,0,0,0,31.45,7c1.71-2.11,3.42-4.22,5.08-6.38L36,.08c-2.16,1.65-4.27,3.34-6.37,5a22.76,22.76,0,0,0-2.52-2.05A15.44,15.44,0,0,0,22.51.84a15.81,15.81,0,0,0,2,4.74,20,20,0,0,0,1.67,2.36L26,8,21.1,12.11l-4.84,4.14c-1.61,1.39-3.31,2.68-5,4a30.74,30.74,0,0,0-4.53,4.45A39.42,39.42,0,0,0,0,36l.5.5A39.44,39.44,0,0,0,11.77,29.76Z"/></g></g></svg>