<svg xmlns="http://www.w3.org/2000/svg" viewBox="0 0 71.87 71.87"><defs><style>.cls-1{fill:#fe372d;}.cls-2{fill:#b21710;}.cls-3{fill:#7d0904;}.cls-4{fill:#fd5a53;}.cls-5{fill:#8f1611;}.cls-6{fill:#fff;}</style></defs><g id="Layer_2" data-name="Layer 2"><g id="Layer_2-2" data-name="Layer 2"><path class="cls-1" d="M71.86,35.68a4.18,4.18,0,0,1-1.21,3.22L38.9,70.65a4.21,4.21,0,0,1-5.93,0L1.23,38.9a4.19,4.19,0,0,1,0-5.93L33,1.23a4.19,4.19,0,0,1,5.93,0L70.65,33A4.19,4.19,0,0,1,71.86,35.68Z"/><path class="cls-2" d="M71.86,35.68H60.28L35.94,11.34V0a4.17,4.17,0,0,1,3,1.23L70.65,33A4.19,4.19,0,0,1,71.86,35.68Z"/><path class="cls-3" d="M71.86,35.68a4.18,4.18,0,0,1-1.21,3.22L38.9,70.65a4.16,4.16,0,0,1-3,1.22v-11L60.28,35.68Z"/><path class="cls-4" d="M35.94,0V10.79L11.6,35.13H.08A4.2,4.2,0,0,1,1.23,33L33,1.23A4.18,4.18,0,0,1,35.94,0Z"/><path class="cls-5" d="M35.94,60.32V71.87a4.17,4.17,0,0,1-3-1.22L1.23,38.9A4.17,4.17,0,0,1,.08,35.13H11.6Z"/><path class="cls-6" d="M39.72,38.89l2.86.66a37.86,37.86,0,0,0-3.46-4.64c1.71-1.59,7.45-10.82,7.45-10.82s-7.45,4.62-10.12,6.81l-.7,3.18-.21-2.75c-2-1.91-10.62-7.24-10.62-7.24s5.75,9.23,7.44,10.82c-1.69,1.59-7.44,10.82-7.44,10.82s5.17-3.22,8.45-5.54L33,37.75l.84,2.1a15.23,15.23,0,0,0,1.93-1.56C37.3,40,46.23,45.52,46.56,45.73c-.1-.18-1.81-2.92-3.62-5.63Z"/></g></g></svg>