<svg xmlns="http://www.w3.org/2000/svg" viewBox="0 0 38.17 38.16"><defs><style>.cls-1{fill:#fe372d;}.cls-2{fill:#b21710;}.cls-3{fill:#6b0101;}.cls-4{fill:#ff7676;}.cls-5{fill:#8f1611;}.cls-6{fill:#fff;}</style></defs><g id="Layer_2" data-name="Layer 2"><g id="Layer_2-2" data-name="Layer 2"><path class="cls-1" d="M37.41,37.14a3,3,0,0,1-2.25,1H3a3,3,0,0,1-3-3V3A3,3,0,0,1,1.33.51,3.11,3.11,0,0,1,3,0H35.16a3,3,0,0,1,2.12.88A3,3,0,0,1,38.16,3V35.16A3,3,0,0,1,37.41,37.14Z"/><path class="cls-2" d="M37.41,37.14l-5.87-5.86V6.62L37.28.88A3,3,0,0,1,38.16,3V35.16A3,3,0,0,1,37.41,37.14Z"/><path class="cls-3" d="M37.41,37.14a3,3,0,0,1-2.25,1H3a3,3,0,0,1-2.11-.88l5.57-5.57,25.08-.43Z"/><path class="cls-4" d="M37.28.88,31.82,6.35H7.17L1.33.51A3.11,3.11,0,0,1,3,0H35.16A3,3,0,0,1,37.28.88Z"/><path class="cls-5" d="M6.74,31.43.89,37.28A3,3,0,0,1,0,35.16V3A3,3,0,0,1,1.33.51L7.17,6.35Z"/><path class="cls-6" d="M10.22,13.76c1.49-.38,3-.7,4.49-1L17,12.28l2.26-.41c.75-.13,1.49-.32,2.24-.49a8.66,8.66,0,0,1,2.27-.21,14.3,14.3,0,0,1,2.31.29,9.82,9.82,0,0,1,2.35.78l0,.33a9.88,9.88,0,0,1-2.19,1.16,13.18,13.18,0,0,1-2.23.66,8.67,8.67,0,0,1-2.27.18c-.77-.05-1.54-.11-2.3-.12l-2.29,0-2.29-.07c-1.53-.08-3.06-.14-4.59-.27Z"/><path class="cls-6" d="M15.2,13.77c-.11,2.75-1.33,6.82-1,9.5a8.34,8.34,0,0,0,.46,1.88,1.59,1.59,0,0,0,.38.6c.08.05,0,0,.23.09l.43.1a17.25,17.25,0,0,0,4,.2,14.81,14.81,0,0,0,3.83-.65,3,3,0,0,0,.63-.29s0,0,0,0,0,0,0,0v0s0-.12.06-.24a13.83,13.83,0,0,0,.15-1.84c.08-2.67,0-5.46.18-8.27l.22,0a27.91,27.91,0,0,1,1.15,4.06,29.23,29.23,0,0,1,.59,4.21,10.18,10.18,0,0,1-.09,2.31,3.35,3.35,0,0,1-.24.75,1.87,1.87,0,0,1-.15.26,1.16,1.16,0,0,1-.19.23,1.85,1.85,0,0,1-.39.33,4.48,4.48,0,0,1-1.27.53,13.09,13.09,0,0,1-2.25.29c-.73.05-1.45.05-2.16,0a18.91,18.91,0,0,1-4.32-.53,4.63,4.63,0,0,1-.56-.19,1.86,1.86,0,0,1-.68-.41,2.88,2.88,0,0,1-.65-1.17,9.12,9.12,0,0,1-.34-2.2c-.07-1.43-.17-8.23.07-9.6Z"/><path class="cls-6" d="M17.05,16.14c.23.67.4,1.33.6,2s.35,1.33.49,2a5.65,5.65,0,0,1,.39,2,4.21,4.21,0,0,1-.79,2.11l-.22,0a4.22,4.22,0,0,1-1.14-2,5.46,5.46,0,0,1,.05-2c0-.68.08-1.36.15-2.05s.14-1.38.25-2.07Z"/><path class="cls-6" d="M21.91,24.28c-.23-.66-.4-1.33-.61-2s-.34-1.34-.49-2a5.61,5.61,0,0,1-.39-2,4.27,4.27,0,0,1,.8-2.11l.21,0a4.27,4.27,0,0,1,1.14,1.95,5.67,5.67,0,0,1,0,2.05c0,.68-.08,1.37-.15,2.06s-.14,1.37-.26,2.06Z"/><path class="cls-6" d="M17.32,11.58a1.6,1.6,0,0,1-.76-.63,1.43,1.43,0,0,1-.18-1.19,1.75,1.75,0,0,1,.84-1,2.25,2.25,0,0,1,.51-.22,2.59,2.59,0,0,1,.48-.12,2.47,2.47,0,0,1,1.11,0,1.75,1.75,0,0,1,1.05.72,1.7,1.7,0,0,1,.25,1.08,1.84,1.84,0,0,1-.34.91c-.26-.57-.56-1.06-.85-1.17a1,1,0,0,0-.38-.06,4.59,4.59,0,0,0-.55.07,4.45,4.45,0,0,0-.93.28.56.56,0,0,0-.22.44A3.81,3.81,0,0,0,17.32,11.58Z"/></g></g></svg>