<svg xmlns="http://www.w3.org/2000/svg" viewBox="0 0 27.58 27.57"><defs><style>.cls-1{fill:#fff;}</style></defs><g id="Layer_2" data-name="Layer 2"><g id="Icons"><path class="cls-1" d="M18.85,18.85l3.64.84a48.74,48.74,0,0,0-4.4-5.91C20.26,11.76,27.58,0,27.58,0S18.09,5.89,14.69,8.68l-.9,4-.26-3.5C10.93,6.79,0,0,0,0S7.32,11.76,9.48,13.78C7.32,15.81,0,27.57,0,27.57s6.59-4.1,10.76-7.06l-.5-3.11,1.07,2.68a19.09,19.09,0,0,0,2.46-2c2,2.13,13.35,9.21,13.78,9.47-.13-.22-2.31-3.71-4.62-7.17Z"/></g></g></svg>