<svg xmlns="http://www.w3.org/2000/svg" viewBox="0 0 31.63 23.01"><defs><style>.cls-1{fill:#fff;}</style></defs><g id="Layer_2" data-name="Layer 2"><g id="Icons"><path class="cls-1" d="M31.63,0A50.7,50.7,0,0,1,28.8,5.55c-1,1.78-2.13,3.49-3.27,5.17s-2.15,3-3.28,4.52l-2.07-2.78,1.64,3.35c-1.19,1.55-2.43,3-3.68,4.52L15.86,23l-2.27-2.67c-1.31-1.54-2.6-3.1-3.84-4.7S7.3,12.4,6.15,10.72,3.89,7.33,2.85,5.55A52.64,52.64,0,0,1,0,0,50.62,50.62,0,0,1,5.08,3.63c1.6,1.29,3.14,2.64,4.63,4l.21.2L9.59,11.5l.86-3.15c1.24,1.16,2.43,2.36,3.6,3.58.61.63,1.21,1.28,1.8,1.93.59-.65,1.19-1.3,1.79-1.93C19,10.47,20.47,9,22,7.65s3-2.73,4.62-4A49.23,49.23,0,0,1,31.63,0Z"/></g></g></svg>