<svg xmlns="http://www.w3.org/2000/svg" viewBox="0 0 37.27 43.16"><defs><style>.cls-1{fill:#fff;}</style></defs><g id="Layer_2" data-name="Layer 2"><g id="Icons"><path class="cls-1" d="M26.09,22.83V39.77a1.39,1.39,0,0,1-1.39,1.39H3.38A1.38,1.38,0,0,1,2,39.77V12.84a1.38,1.38,0,0,1,1.38-1.39H20.2a12.24,12.24,0,0,1,1.18-2h-18A3.39,3.39,0,0,0,0,12.84V39.77a3.39,3.39,0,0,0,3.38,3.39H24.7a3.39,3.39,0,0,0,3.39-3.39V21.54Z"/><path class="cls-1" d="M37.26,1.56c-.07-5.46-14.2,4.63-16.43,11l-.42,4.91a11.82,11.82,0,0,0-1.05-3.59,136.41,136.41,0,0,0-7.61,17l10.91-7-1.6-.41,2.65-.27,5.09-3.27A20,20,0,0,0,34,13.26c.06-.12.12-.24.17-.37a14.45,14.45,0,0,1-3.8.84L34.56,12a38.09,38.09,0,0,0,1.55-4A13.53,13.53,0,0,1,32,9.43L36.68,6A17.8,17.8,0,0,0,37.26,1.56Zm-22,26.17-2.72,2.15,1.59-3L32,6.58Z"/></g></g></svg>