<svg xmlns="http://www.w3.org/2000/svg" viewBox="0 0 37.2653 38.36361"><defs><style>.cls-1{fill:#fff;}</style></defs><g id="Layer_2" data-name="Layer 2"><g id="Layer_4" data-name="Layer 4"><path class="cls-1" d="M26.14139,23.22941V34.36226A1.32545,1.32545,0,0,1,24.71,35.55456H4.156a1.32189,1.32189,0,0,1-1.42107-1.1923V13.3433A1.32189,1.32189,0,0,1,4.156,12.151H19.82544A13.40965,13.40965,0,0,1,21.2782,9.44866H3.48057A3.23884,3.23884,0,0,0,0,12.35646V35.45581a3.23884,3.23884,0,0,0,3.48057,2.9078H25.4349a3.24241,3.24241,0,0,0,3.49087-2.9078V21.12739Z"/><path class="cls-1" d="M37.2641,1.56447c-.07-5.46-14.2,4.63-16.43,10.96l-.42,4.91a11.81508,11.81508,0,0,0-1.05-3.59,136.41041,136.41041,0,0,0-7.61,17.01l10.91-7.01-1.6-.41,2.65-.27,5.09-3.27a19.96353,19.96353,0,0,0,5.15-6.63c.06-.12.12-.24.17-.37a14.455,14.455,0,0,1-3.8.84l4.24-1.77a38.09442,38.09442,0,0,0,1.55-4.01,13.52534,13.52534,0,0,1-4.15,1.48l4.72-3.44A17.80257,17.80257,0,0,0,37.2641,1.56447Zm-21.96,26.17005-2.72874,2.144,1.59874-2.994,17.87-20.3Z"/></g></g></svg>