<svg xmlns="http://www.w3.org/2000/svg" viewBox="0 0 35.62 20.7"><defs><style>.cls-1{fill:#fff;}</style></defs><g id="Layer_2" data-name="Layer 2"><g id="Icons"><path class="cls-1" d="M35.62,2a28,28,0,0,1-8.7,3,21.39,21.39,0,0,1-4.45.36c-1.49,0-3-.11-4.49-.09l-4.47.06L9,5.29c-3-.07-6-.08-9-.21l0-.5C2.93,3.92,5.87,3.4,8.81,2.8L13.22,2l4.42-.72C19.11,1,20.57.72,22,.42,22.5.33,23,.25,23.43.2L21.17,2.13l3.16-2A19.51,19.51,0,0,1,26.49,0a27.87,27.87,0,0,1,9.09,1.47Z"/><path class="cls-1" d="M35.62,9.58c-2.93.65-5.87,1.18-8.81,1.77l-4.41.8L18,12.87c-1.47.24-2.93.57-4.4.87a22.14,22.14,0,0,1-4.45.41A27.77,27.77,0,0,1,.05,12.68l0-.49a27.6,27.6,0,0,1,8.7-3,16.81,16.81,0,0,1,2-.27l1.68,2.58-.82-2.64c.54,0,1.07-.05,1.61,0,1.5,0,3,.11,4.49.09l4.47-.05,4.49,0c3,.08,6,.08,9,.22Z"/><path class="cls-1" d="M28.49,20l-1.58-2,1,2.09-1,.21a21.4,21.4,0,0,1-4.45.37c-1.49,0-3-.11-4.49-.09l-4.47.06L9,20.63c-3-.07-6-.08-9-.22l0-.49c2.93-.66,5.87-1.18,8.81-1.78l4.41-.8,4.42-.72c1.47-.24,2.93-.56,4.4-.86a21.44,21.44,0,0,1,4.45-.42,27.87,27.87,0,0,1,9.09,1.47l0,.5A25.3,25.3,0,0,1,28.49,20Z"/></g></g></svg>