<svg xmlns="http://www.w3.org/2000/svg" viewBox="0 0 61.09 63.63"><defs><style>.cls-1{fill:#fff;}</style></defs><g id="Layer_2" data-name="Layer 2"><g id="Icons"><path class="cls-1" d="M42.3,33.43v-.79h-4a10,10,0,0,0-1.16-2.79h0a4,4,0,0,0,0-5.63l-.56-.56-2.81,2.81A10.08,10.08,0,0,0,31,25.32h0a4,4,0,0,0-4-4h-.79v4a10.08,10.08,0,0,0-2.79,1.15h0a4,4,0,0,0-5.63,0l-.56.56,2.82,2.82a10,10,0,0,0-1.16,2.79h0a4,4,0,0,0-4,4v.79h4a10.1,10.1,0,0,0,1.16,2.79h0a4,4,0,0,0,0,5.63l.56.56,2.81-2.82a10.1,10.1,0,0,0,2.79,1.16h0a4,4,0,0,0,4,4H31v-4a10.1,10.1,0,0,0,2.79-1.16h0a4,4,0,0,0,5.63,0L40,43,37.16,40.2a10.1,10.1,0,0,0,1.16-2.79h0A4,4,0,0,0,42.3,33.43ZM29.74,40.64a5.73,5.73,0,1,1,4.49-4.5A5.74,5.74,0,0,1,29.74,40.64Z"/><path class="cls-1" d="M3.34,39.14A24.37,24.37,0,0,1,3,35,25.65,25.65,0,0,1,23,10a24.86,24.86,0,0,1,4.25-.59h0a48.73,48.73,0,0,0-4.44,6.39C27.13,13.91,30.79,11,34.3,7.94l.07-.06L33,6.74h0A43.64,43.64,0,0,0,22.86,0a46.69,46.69,0,0,0,4.51,6.43h0a27.85,27.85,0,0,0-3.57.38A28.67,28.67,0,0,0,0,35a27.54,27.54,0,0,0,.15,2.89L2.9,39Z"/><path class="cls-1" d="M28.62,60.63a25.57,25.57,0,0,1-20.3-10,25,25,0,0,1-2.27-3.48h0a45.2,45.2,0,0,0,8.22,1c-3.73-2.87-8.08-4.69-12.44-6.36l-.06.29c-.13.59-.26,1.18-.38,1.77v0a42.93,42.93,0,0,0-1,11.79,50.22,50.22,0,0,0,3.35-6.56h0a27.16,27.16,0,0,0,1.95,3,28.58,28.58,0,0,0,40.66,5.37l-.8-3.24A25.48,25.48,0,0,1,28.62,60.63Z"/><path class="cls-1" d="M54,48.15h0A26,26,0,0,0,55.45,45,28.61,28.61,0,0,0,38.6,8.2S36.08,10.37,36,10.47A25.66,25.66,0,0,1,54.23,35,25.56,25.56,0,0,1,51,47.51h0a42,42,0,0,0-3.5-7.87c-.53,4.67.16,9.35,1,13.94,4.4-1.5,8.82-3.18,12.63-5.91A56.7,56.7,0,0,0,54,48.15Z"/></g></g></svg>