<svg xmlns="http://www.w3.org/2000/svg" viewBox="0 0 50.78 34.66"><defs><style>.cls-1{fill:#fff;}</style></defs><g id="Layer_2" data-name="Layer 2"><g id="Icons"><path class="cls-1" d="M30.76,25.22l-14.27,5A1.88,1.88,0,0,1,14,28.42V6.85a1.88,1.88,0,0,1,1.26-1.77l14.27-5A1.88,1.88,0,0,1,32,1.88V23.45A1.88,1.88,0,0,1,30.76,25.22Z"/><path class="cls-1" d="M36.44,6.23V27.8a1.9,1.9,0,0,1-1.26,1.78l-14.27,5a1.88,1.88,0,0,1-2.5-1.77V30.87l12.77-4.45a3.15,3.15,0,0,0,2.1-3V4.69l.66-.23A1.88,1.88,0,0,1,36.44,6.23Z"/><path class="cls-1" d="M10.19,9.66l1.22,7.92A1.27,1.27,0,0,1,11,18.72a1.32,1.32,0,0,1-.63.3A1.26,1.26,0,0,1,8.9,18l-.59-3.83A.49.49,0,0,0,7.4,14c-2.82,5.26-1.66,11.19-1.78,11.3-.56.19-3.47-6.75,0-13a.48.48,0,0,0-.46-.72L1.4,11.9A1.26,1.26,0,0,1,0,10.76,1.25,1.25,0,0,1,1.14,9.38l7.67-.79A1.25,1.25,0,0,1,10.19,9.66Z"/><path class="cls-1" d="M40.59,22.43l-1.21-7.92a1.25,1.25,0,0,1,.43-1.15,1.28,1.28,0,0,1,.63-.3,1.26,1.26,0,0,1,1.44,1.06l.6,3.84a.48.48,0,0,0,.9.14C46.2,12.84,45,6.91,45.16,6.8c.56-.19,3.47,6.75.06,13.05a.48.48,0,0,0,.46.72l3.7-.38a1.27,1.27,0,1,1,.27,2.52L42,23.49A1.25,1.25,0,0,1,40.59,22.43Z"/></g></g></svg>